# xmcd
#
# Track frame offsets:
# 150
# 17854
# 30775
# 48957
# 62776
# 75008
# 88590
# 99025
# 115420
# 129836
# 141116
# 154815
# 166916
#
# Disc length: 2441 seconds
#
# Revision: 1
# Processed by: cddbd v1.4PL0 Copyright (c) Steve Scherf et al.
# Submitted via: CedeCatalogueitor 2.5 http://usuarios.lycos.es/kakasboy
#
DISCID=8b09870d
DTITLE=Coyote Dax - Cruzando Fronteras
DYEAR=2003
DGENRE=
TTITLE0=Mi Forma De Sentir
TTITLE1=No Volveré
TTITLE2=Por Mujeres Como Tú
TTITLE3=Mujeres Divinas
TTITLE4=Mexico Lindo Y Querido
TTITLE5=Muero De Amor
TTITLE6=Se Me Olvido Otra Vez
TTITLE7=Amor Eterno
TTITLE8=Otra Vez
TTITLE9=Volver Volver
TTITLE10=Ella
TTITLE11=De Que Manera Te Olvido
TTITLE12=La Tejana Maldita
EXTD=
EXTT0=
EXTT1=
EXTT2=
EXTT3=
EXTT4=
EXTT5=
EXTT6=
EXTT7=
EXTT8=
EXTT9=
EXTT10=
EXTT11=
EXTT12=
PLAYORDER=
